<svg width="72" height="72" viewBox="0 0 72 72" fill="none" xmlns="http://www.w3.org/2000/svg">
<rect x="0.5" y="0.5" width="71" height="71" rx="11.5" fill="#453F51"/>
<path d="M28.1446 14.156C28.1446 13.8969 28.0219 13.7332 27.7764 13.665C27.5446 13.5832 26.7945 13.5423 25.5262 13.5423V41.0362C26.7945 41.0362 27.5446 40.9952 27.7764 40.9134C28.0219 40.8316 28.1446 40.6611 28.1446 40.402V14.156ZM30.7631 40.2383C30.7631 40.9339 30.6131 41.4726 30.313 41.8544C30.0266 42.2226 29.597 42.4954 29.0243 42.6727C28.7515 42.7545 28.4174 42.8227 28.0219 42.8773C27.6264 42.9182 27.0809 42.9523 26.3853 42.9795C25.6898 42.9932 25.0761 43 24.5442 43H22.9077V11.5785C23.4668 11.5785 24.026 11.5853 24.5851 11.5989C25.1579 11.5989 25.7375 11.6057 26.324 11.6194C27.5241 11.6467 28.4106 11.7353 28.9833 11.8853C29.5698 12.049 30.013 12.3149 30.313 12.6831C30.6131 13.0377 30.7631 13.5491 30.7631 14.2174V40.2383ZM40.5823 43H37.9638L37.5547 36.2084H35.7341L35.3454 43H32.7269L35.3454 11.5785H37.9638L40.5823 43ZM37.4115 34.0809L36.6546 18.1246L35.8773 34.0809H37.4115ZM46.4738 19.4338L47.1285 11.5785H49.7469L47.1285 32.5262V43H44.51V32.5262L41.8915 11.5785H44.51L45.1646 19.4338L45.8192 27.9438L46.4738 19.4338Z" fill="url(#paint0_linear_2300_35)" fill-opacity="0.58"/>
<path d="M23.4743 47.6491C22.1918 47.6491 20.8445 47.4061 19.7885 46.8208V36.4949C20.8279 35.9262 22.1753 35.6667 23.4743 35.6667C24.7733 35.6667 26.0889 35.9097 27.127 36.4949V40.4568H24.5125V37.7609C24.2046 37.6311 23.8305 37.5827 23.4578 37.5827C23.085 37.5827 22.7427 37.6311 22.4183 37.7609V45.5549C22.7262 45.6847 23.0837 45.733 23.4578 45.733C23.8318 45.733 24.1881 45.6847 24.5125 45.5549V42.8602H27.127V46.8221C26.1041 47.3908 24.7568 47.6338 23.4743 47.6504V47.6491Z" fill="#F7DD43"/>
<path d="M32.0305 47.6491C30.6501 47.6491 29.3193 47.3565 28.2633 46.7559V36.5433C29.3027 35.9593 30.6348 35.6667 32.0305 35.6667C33.4262 35.6667 34.7252 35.9427 35.7647 36.5433V46.7559C34.7418 47.3565 33.3944 47.6325 32.0305 47.6491ZM33.1514 37.7939C32.8435 37.6642 32.4694 37.5993 32.0152 37.5993C31.561 37.5993 31.2035 37.6642 30.8944 37.7939V45.5065C31.2022 45.6529 31.5763 45.7178 32.0152 45.7178C32.4542 45.7178 32.827 45.6529 33.1514 45.5065V37.7939Z" fill="#F7DD43"/>
<path d="M40.3271 43.2648H39.6286V47.5028H36.9822V35.813H40.3271C41.9187 35.813 43.1197 36.1374 44.0612 36.8028V42.2749C43.1363 42.9251 41.9174 43.2648 40.3271 43.2648ZM41.4314 37.8257C41.1884 37.6476 40.8627 37.5662 40.3105 37.5662H39.5955V41.5116H40.3105C40.8462 41.5116 41.1706 41.4301 41.4314 41.2686V37.8257Z" fill="#F7DD43"/>
<path d="M49.597 47.5028V43.2648H47.6491V47.5028H45.0193V36.5267C45.9773 35.958 47.3247 35.6667 48.6237 35.6667C49.9227 35.6667 51.2535 35.9593 52.2115 36.5267V47.5028H49.597ZM49.597 37.696C49.3209 37.5662 48.9799 37.5013 48.6224 37.5013C48.2649 37.5013 47.9239 37.5662 47.6478 37.696V41.4136H49.5957V37.696H49.597Z" fill="#F7DD43"/>
<path d="M13.4346 57.962H14.7217C14.6959 58.3839 14.5797 58.7584 14.373 59.0855C14.1693 59.4127 13.8837 59.6681 13.5164 59.8518C13.1519 60.0355 12.7128 60.1273 12.1991 60.1273C11.7974 60.1273 11.4372 60.0584 11.1186 59.9207C10.8001 59.78 10.5275 59.5792 10.3007 59.318C10.0769 59.0568 9.90615 58.7412 9.78849 58.371C9.67082 58.0008 9.61199 57.5861 9.61199 57.1269V56.6921C9.61199 56.2329 9.67226 55.8183 9.79279 55.448C9.91619 55.075 10.0913 54.7579 10.318 54.4967C10.5476 54.2355 10.8216 54.0347 11.1402 53.894C11.4587 53.7534 11.8146 53.6831 12.2077 53.6831C12.7301 53.6831 13.1706 53.7778 13.5293 53.9672C13.8909 54.1566 14.1707 54.4178 14.3687 54.7507C14.5696 55.0836 14.6901 55.4624 14.7303 55.8871H13.4389C13.4245 55.6346 13.3743 55.4208 13.2882 55.2457C13.2021 55.0678 13.0716 54.9344 12.8965 54.8454C12.7243 54.7536 12.4947 54.7076 12.2077 54.7076C11.9925 54.7076 11.8045 54.7478 11.6438 54.8282C11.4831 54.9085 11.3482 55.0305 11.2392 55.1941C11.1301 55.3577 11.0483 55.5643 10.9938 55.814C10.9422 56.0608 10.9163 56.3506 10.9163 56.6835V57.1269C10.9163 57.4512 10.9407 57.7367 10.9895 57.9835C11.0383 58.2275 11.1129 58.4341 11.2134 58.6034C11.3167 58.7699 11.4487 58.8961 11.6094 58.9822C11.773 59.0655 11.9696 59.1071 12.1991 59.1071C12.4689 59.1071 12.6913 59.064 12.8664 58.9779C13.0414 58.8918 13.1749 58.7641 13.2667 58.5948C13.3614 58.4255 13.4174 58.2146 13.4346 57.962ZM18.1181 54.8454L16.4135 60.0412H15.0403L17.3691 53.7735H18.243L18.1181 54.8454ZM19.5344 60.0412L17.8254 54.8454L17.6877 53.7735H18.5701L20.9119 60.0412H19.5344ZM19.4569 57.708V58.7196H16.1466V57.708H19.4569ZM25.5223 59.0339V60.0412H22.3669V59.0339H25.5223ZM22.7845 53.7735V60.0412H21.4931V53.7735H22.7845ZM30.4684 59.0339V60.0412H27.1323V59.0339H30.4684ZM27.5541 53.7735V60.0412H26.2627V53.7735H27.5541ZM30.0336 56.3262V57.3077H27.1323V56.3262H30.0336ZM30.4641 53.7735V54.7851H27.1323V53.7735H30.4641ZM36.3229 53.7735V60.0412H35.0314L32.5132 55.8398V60.0412H31.2217V53.7735H32.5132L35.0357 57.9792V53.7735H36.3229ZM39.3706 60.0412H38.006L38.0146 59.0339H39.3706C39.7092 59.0339 39.9948 58.9578 40.2272 58.8057C40.4597 58.6508 40.6348 58.4255 40.7524 58.1299C40.873 57.8343 40.9332 57.477 40.9332 57.058V56.7524C40.9332 56.431 40.8988 56.1483 40.8299 55.9044C40.7639 55.6604 40.6649 55.4552 40.5329 55.2888C40.4009 55.1223 40.2387 54.9975 40.0464 54.9143C39.8542 54.8282 39.6332 54.7851 39.3835 54.7851H37.9802V53.7735H39.3835C39.8025 53.7735 40.1856 53.8453 40.5329 53.9887C40.883 54.1294 41.1858 54.3317 41.4412 54.5957C41.6966 54.8597 41.8932 55.1754 42.0309 55.5428C42.1716 55.9072 42.2419 56.3133 42.2419 56.761V57.058C42.2419 57.5028 42.1716 57.9089 42.0309 58.2763C41.8932 58.6436 41.6966 58.9593 41.4412 59.2233C41.1886 59.4845 40.8859 59.6868 40.5329 59.8303C40.1828 59.9709 39.7953 60.0412 39.3706 60.0412ZM38.7378 53.7735V60.0412H37.4464V53.7735H38.7378ZM45.634 54.8454L43.9293 60.0412H42.5561L44.885 53.7735H45.7588L45.634 54.8454ZM47.0503 60.0412L45.3413 54.8454L45.2035 53.7735H46.086L48.4278 60.0412H47.0503ZM46.9728 57.708V58.7196H43.6624V57.708H46.9728ZM44.9065 53.4205L45.7502 52.0947H47.0976L45.9138 53.4205H44.9065ZM49.0089 53.7735H51.3464C51.8256 53.7735 52.2375 53.8453 52.5818 53.9887C52.9291 54.1322 53.196 54.3446 53.3825 54.6258C53.569 54.9071 53.6623 55.2529 53.6623 55.6633C53.6623 55.9991 53.6049 56.2875 53.4901 56.5285C53.3782 56.7667 53.2189 56.9662 53.0123 57.1269C52.8085 57.2847 52.5689 57.411 52.2934 57.5057L51.8845 57.7209H49.8526L49.844 56.7136H51.355C51.5817 56.7136 51.7697 56.6735 51.9189 56.5931C52.0681 56.5128 52.1801 56.4008 52.2547 56.2573C52.3322 56.1138 52.3709 55.9474 52.3709 55.758C52.3709 55.5571 52.3336 55.3835 52.259 55.2371C52.1844 55.0908 52.071 54.9788 51.9189 54.9013C51.7668 54.8239 51.576 54.7851 51.3464 54.7851H50.3003V60.0412H49.0089V53.7735ZM52.513 60.0412L51.0838 57.2474L52.4484 57.2388L53.8948 59.9809V60.0412H52.513ZM56.0299 53.7735V60.0412H54.7428V53.7735H56.0299ZM62.388 56.761V57.058C62.388 57.5344 62.3234 57.962 62.1943 58.3408C62.0652 58.7196 61.8829 59.0425 61.6476 59.3094C61.4123 59.5734 61.131 59.7757 60.8039 59.9164C60.4796 60.057 60.1194 60.1273 59.7234 60.1273C59.3302 60.1273 58.97 60.057 58.6429 59.9164C58.3186 59.7757 58.0374 59.5734 57.7992 59.3094C57.561 59.0425 57.3759 58.7196 57.2439 58.3408C57.1147 57.962 57.0501 57.5344 57.0501 57.058V56.761C57.0501 56.2817 57.1147 55.8541 57.2439 55.4782C57.373 55.0994 57.5552 54.7765 57.7906 54.5096C58.0287 54.2427 58.31 54.039 58.6343 53.8983C58.9614 53.7577 59.3216 53.6874 59.7148 53.6874C60.1108 53.6874 60.471 53.7577 60.7953 53.8983C61.1224 54.039 61.4037 54.2427 61.639 54.5096C61.8772 54.7765 62.0608 55.0994 62.19 55.4782C62.322 55.8541 62.388 56.2817 62.388 56.761ZM61.0837 57.058V56.7524C61.0837 56.4195 61.0535 56.1268 60.9933 55.8742C60.933 55.6217 60.844 55.4093 60.7264 55.2371C60.6087 55.0649 60.4652 54.9358 60.2959 54.8497C60.1266 54.7607 59.9329 54.7162 59.7148 54.7162C59.4967 54.7162 59.3029 54.7607 59.1336 54.8497C58.9672 54.9358 58.8251 55.0649 58.7075 55.2371C58.5927 55.4093 58.5051 55.6217 58.4449 55.8742C58.3846 56.1268 58.3545 56.4195 58.3545 56.7524V57.058C58.3545 57.388 58.3846 57.6808 58.4449 57.9362C58.5051 58.1887 58.5941 58.4025 58.7118 58.5776C58.8294 58.7498 58.9729 58.8804 59.1422 58.9693C59.3116 59.0583 59.5053 59.1028 59.7234 59.1028C59.9415 59.1028 60.1352 59.0583 60.3045 58.9693C60.4738 58.8804 60.6159 58.7498 60.7307 58.5776C60.8455 58.4025 60.933 58.1887 60.9933 57.9362C61.0535 57.6808 61.0837 57.388 61.0837 57.058Z" fill="url(#paint1_linear_2300_35)"/>
<rect x="0.5" y="0.5" width="71" height="71" rx="11.5" stroke="#1CA5AE"/>
<defs>
<linearGradient id="paint0_linear_2300_35" x1="36" y1="16" x2="36.1695" y2="39.5661" gradientUnits="userSpaceOnUse">
<stop stop-color="#08D034"/>
<stop offset="1" stop-color="#07EF48" stop-opacity="0"/>
</linearGradient>
<linearGradient id="paint1_linear_2300_35" x1="36" y1="51.0412" x2="36" y2="60.7133" gradientUnits="userSpaceOnUse">
<stop stop-color="white"/>
<stop offset="1" stop-color="#D9D9D9" stop-opacity="0.8"/>
</linearGradient>
</defs>
</svg>
