<svg width="20" height="20" viewBox="0 0 20 20" fill="none" xmlns="http://www.w3.org/2000/svg">
<path d="M9.99934 6.14746C8.97737 6.14746 7.99726 6.55344 7.27462 7.27608C6.55198 7.99872 6.146 8.97883 6.146 10.0008C6.146 11.0228 6.55198 12.0029 7.27462 12.7255C7.99726 13.4482 8.97737 13.8541 9.99934 13.8541C11.0213 13.8541 12.0015 13.4482 12.7241 12.7255C13.4467 12.0029 13.8527 11.0228 13.8527 10.0008C13.8527 8.97883 13.4467 7.99872 12.7241 7.27608C12.0015 6.55344 11.0213 6.14746 9.99934 6.14746ZM9.99934 12.5033C9.33541 12.5033 8.69868 12.2396 8.22921 11.7701C7.75975 11.3006 7.496 10.6639 7.496 9.99996C7.496 9.33604 7.75975 8.6993 8.22921 8.22984C8.69868 7.76037 9.33541 7.49663 9.99934 7.49663C10.6633 7.49663 11.3 7.76037 11.7695 8.22984C12.239 8.6993 12.5027 9.33604 12.5027 9.99996C12.5027 10.6639 12.239 11.3006 11.7695 11.7701C11.3 12.2396 10.6633 12.5033 9.99934 12.5033Z" fill="url(#paint0_linear_458_1047)"/>
<path d="M14.0052 6.90409C14.5013 6.90409 14.9035 6.50189 14.9035 6.00576C14.9035 5.50962 14.5013 5.10742 14.0052 5.10742C13.5091 5.10742 13.1069 5.50962 13.1069 6.00576C13.1069 6.50189 13.5091 6.90409 14.0052 6.90409Z" fill="url(#paint1_linear_458_1047)"/>
<path d="M17.1106 5.09224C16.9177 4.59406 16.6229 4.14165 16.2451 3.76396C15.8673 3.38627 15.4147 3.09164 14.9165 2.89891C14.3334 2.68004 13.7175 2.56169 13.0948 2.54891C12.2923 2.51391 12.0381 2.50391 10.0031 2.50391C7.96813 2.50391 7.7073 2.50391 6.91147 2.54891C6.28929 2.56104 5.67377 2.67941 5.09146 2.89891C4.59308 3.09141 4.14043 3.38597 3.76257 3.76368C3.38471 4.1414 3.08998 4.59393 2.89729 5.09224C2.67839 5.67525 2.56031 6.29127 2.54814 6.91391C2.5123 7.71558 2.50146 7.96974 2.50146 10.0056C2.50146 12.0406 2.50147 12.2998 2.54814 13.0973C2.56064 13.7206 2.67813 14.3356 2.89729 14.9198C3.09053 15.4179 3.38554 15.8703 3.76349 16.2479C4.14144 16.6256 4.59402 16.9203 5.0923 17.1131C5.6735 17.3408 6.28928 17.4676 6.91313 17.4881C7.71564 17.5231 7.96979 17.534 10.0048 17.534C12.0398 17.534 12.3006 17.534 13.0965 17.4881C13.7191 17.4755 14.335 17.3574 14.9181 17.139C15.4163 16.9458 15.8687 16.6509 16.2465 16.2731C16.6242 15.8953 16.9191 15.4429 17.1123 14.9448C17.3315 14.3615 17.449 13.7465 17.4615 13.1231C17.4973 12.3215 17.5081 12.0673 17.5081 10.0315C17.5081 7.99558 17.5081 7.73724 17.4615 6.93974C17.4518 6.3083 17.3331 5.68328 17.1106 5.09224ZM16.0956 13.0356C16.0903 13.5159 16.0026 13.9916 15.8365 14.4423C15.7113 14.7663 15.5197 15.0606 15.274 15.3062C15.0283 15.5517 14.7339 15.7432 14.4098 15.8681C13.9642 16.0335 13.4934 16.1212 13.0181 16.1273C12.2265 16.164 12.0031 16.1731 9.97313 16.1731C7.94146 16.1731 7.73396 16.1731 6.92729 16.1273C6.45223 16.1215 5.98174 16.0338 5.53647 15.8681C5.21121 15.7439 4.91563 15.5529 4.66887 15.3073C4.42211 15.0616 4.22965 14.767 4.10396 14.4423C3.94016 13.9965 3.85255 13.5263 3.84479 13.0515C3.80896 12.2598 3.80063 12.0365 3.80063 10.0065C3.80063 7.97558 3.80063 7.76808 3.84479 6.96058C3.85018 6.4806 3.93784 6.00509 4.10396 5.55474C4.35813 4.89724 4.87897 4.37974 5.53647 4.12808C5.98196 3.96319 6.45231 3.87555 6.92729 3.86891C7.71979 3.83308 7.94229 3.82308 9.97313 3.82308C12.004 3.82308 12.2123 3.82308 13.0181 3.86891C13.4935 3.87463 13.9643 3.9623 14.4098 4.12808C14.7339 4.2533 15.0283 4.44491 15.274 4.6906C15.5196 4.93629 15.7113 5.23064 15.8365 5.55474C16.0003 6.00054 16.0879 6.47071 16.0956 6.94558C16.1315 7.73808 16.1406 7.96058 16.1406 9.99141C16.1406 12.0215 16.1406 12.2398 16.1048 13.0365H16.0956V13.0356Z" fill="url(#paint2_linear_458_1047)"/>
<defs>
<linearGradient id="paint0_linear_458_1047" x1="5.07213" y1="1.96289" x2="17.6127" y2="10.6758" gradientUnits="userSpaceOnUse">
<stop stop-color="#38A726"/>
<stop offset="0.430703" stop-color="#308427"/>
<stop offset="1" stop-color="#FAFF00"/>
</linearGradient>
<linearGradient id="paint1_linear_458_1047" x1="12.8566" y1="4.13186" x2="15.7802" y2="6.16301" gradientUnits="userSpaceOnUse">
<stop stop-color="#38A726"/>
<stop offset="0.430703" stop-color="#308427"/>
<stop offset="1" stop-color="#FAFF00"/>
</linearGradient>
<linearGradient id="paint2_linear_458_1047" x1="0.410411" y1="-5.65714" x2="24.8546" y2="11.2996" gradientUnits="userSpaceOnUse">
<stop stop-color="#38A726"/>
<stop offset="0.430703" stop-color="#308427"/>
<stop offset="1" stop-color="#FAFF00"/>
</linearGradient>
</defs>
</svg>
