<svg width="20" height="20" viewBox="0 0 20 20" fill="none" xmlns="http://www.w3.org/2000/svg">
<path d="M20 4.42358C19.2477 4.75171 18.452 4.96978 17.6375 5.07108C18.4958 4.56187 19.1376 3.75554 19.4413 2.80483C18.6375 3.2815 17.7582 3.61718 16.8412 3.79733C16.2791 3.19706 15.5493 2.77973 14.7469 2.59958C13.9444 2.41942 13.1063 2.48476 12.3415 2.78711C11.5766 3.08946 10.9204 3.61485 10.458 4.295C9.99566 4.97516 9.74853 5.77865 9.74875 6.60108C9.74875 6.92608 9.77625 7.23858 9.84375 7.53608C8.2126 7.45611 6.6167 7.03277 5.16038 6.29373C3.70406 5.55469 2.42012 4.5166 1.3925 3.24733C0.866024 4.14966 0.703261 5.21872 0.937354 6.23684C1.17145 7.25496 1.78479 8.14557 2.6525 8.72733C2.00345 8.70993 1.36809 8.53673 0.8 8.22233V8.26733C0.801087 9.21412 1.12833 10.1316 1.72665 10.8654C2.32496 11.5992 3.15781 12.1044 4.085 12.2961C3.73423 12.3885 3.37273 12.4339 3.01 12.4311C2.74949 12.4357 2.48923 12.4122 2.23375 12.3611C2.49868 13.1749 3.00936 13.8865 3.69549 14.398C4.38162 14.9095 5.20945 15.1958 6.065 15.2173C4.61367 16.3524 2.82372 16.9681 0.98125 16.9661C0.645 16.9661 0.3225 16.9511 0 16.9098C1.87485 18.118 4.05959 18.7571 6.29 18.7498C13.835 18.7498 17.96 12.4998 17.96 7.08233C17.96 6.90108 17.9537 6.72608 17.945 6.55233C18.7537 5.97357 19.4501 5.25219 20 4.42358V4.42358Z" fill="url(#paint0_linear_458_1054)"/>
<defs>
<linearGradient id="paint0_linear_458_1054" x1="-2.78684" y1="-6.3234" x2="25.0863" y2="17.5114" gradientUnits="userSpaceOnUse">
<stop stop-color="#38A726"/>
<stop offset="0.430703" stop-color="#308427"/>
<stop offset="1" stop-color="#FAFF00"/>
</linearGradient>
</defs>
</svg>
