<svg width="174" height="146" viewBox="0 0 174 146" fill="none" xmlns="http://www.w3.org/2000/svg">
<path d="M63.8333 7.93467C63.8333 7.17049 63.4713 6.68785 62.7473 6.48675C62.0636 6.24543 59.8515 6.12477 56.111 6.12477V87.2083C59.8515 87.2083 62.0636 87.0877 62.7473 86.8463C63.4713 86.605 63.8333 86.1023 63.8333 85.3381V7.93467ZM71.5555 84.8554C71.5555 86.9067 71.1131 88.4954 70.2283 89.6215C69.3836 90.7075 68.1167 91.5119 66.4275 92.0347C65.6231 92.276 64.6377 92.4771 63.4713 92.638C62.3049 92.7587 60.6961 92.8592 58.6449 92.9397C56.5937 92.9799 54.7838 93 53.2152 93H48.3888V0.333086C50.0378 0.333086 51.6868 0.353196 53.3358 0.393416C55.0251 0.393416 56.7344 0.413526 58.4639 0.453746C62.0033 0.534186 64.6176 0.795616 66.3068 1.23804C68.0363 1.72068 69.3434 2.50497 70.2283 3.59091C71.1131 4.63663 71.5555 6.14488 71.5555 8.11566V84.8554ZM100.514 93H92.7917L91.5851 72.9704H86.2157L85.0694 93H77.3472L85.0694 0.333086H92.7917L100.514 93ZM91.1628 66.6961L88.9306 19.6387L86.638 66.6961H91.1628ZM117.889 23.4998L119.82 0.333086H127.542L119.82 62.111V93H112.097V62.111L104.375 0.333086H112.097L114.028 23.4998L115.958 48.5971L117.889 23.4998Z" fill="url(#paint0_linear_435_1193)" fill-opacity="0.58"/>
<path d="M50.0598 107.338C46.2776 107.338 42.304 106.621 39.1897 104.895V74.4427C42.2552 72.7655 46.2288 72.0001 50.0598 72.0001C53.8907 72.0001 57.7705 72.7167 60.8323 74.4427V86.127H53.1215V78.1761C52.2135 77.7934 51.1104 77.6508 50.011 77.6508C48.9116 77.6508 47.9023 77.7934 46.9454 78.1761V101.162C47.8535 101.545 48.9078 101.687 50.011 101.687C51.1141 101.687 52.1647 101.545 53.1215 101.162V93.2149H60.8323V104.899C57.8155 106.576 53.842 107.293 50.0598 107.342V107.338Z" fill="#F7DD43"/>
<path d="M75.2933 107.338C71.2222 107.338 67.2974 106.475 64.1831 104.704V74.5853C67.2487 72.863 71.1772 72 75.2933 72C79.4095 72 83.2404 72.8142 86.306 74.5853V104.704C83.2892 106.475 79.3157 107.289 75.2933 107.338ZM78.599 78.2736C77.691 77.8909 76.5878 77.6996 75.2483 77.6996C73.9088 77.6996 72.8544 77.8909 71.9426 78.2736V101.019C72.8507 101.451 73.9538 101.642 75.2483 101.642C76.5428 101.642 77.6422 101.451 78.599 101.019V78.2736Z" fill="#F7DD43"/>
<path d="M99.7611 94.408H97.7012V106.907H89.8967V72.4315H99.7611C104.455 72.4315 107.997 73.3883 110.774 75.3507V91.4888C108.046 93.4062 104.451 94.408 99.7611 94.408ZM103.018 78.3675C102.301 77.8422 101.341 77.602 99.7124 77.602H97.6036V89.2375H99.7124C101.292 89.2375 102.249 88.9974 103.018 88.5209V78.3675Z" fill="#F7DD43"/>
<path d="M127.1 106.907V94.408H121.355V106.907H113.599V74.5365C116.425 72.8592 120.398 72 124.229 72C128.06 72 131.985 72.863 134.81 74.5365V106.907H127.1ZM127.1 77.9847C126.285 77.602 125.28 77.4106 124.225 77.4106C123.171 77.4106 122.165 77.602 121.351 77.9847V88.9486H127.096V77.9847H127.1Z" fill="#F7DD43"/>
<path d="M20.4512 136.21H24.2471C24.1709 137.454 23.8281 138.559 23.2188 139.523C22.6178 140.488 21.7757 141.242 20.6924 141.783C19.6175 142.325 18.3226 142.596 16.8076 142.596C15.6227 142.596 14.5605 142.393 13.6211 141.986C12.6816 141.572 11.8776 140.979 11.209 140.209C10.5488 139.439 10.0452 138.508 9.69824 137.416C9.35124 136.324 9.17773 135.101 9.17773 133.747V132.465C9.17773 131.111 9.35547 129.888 9.71094 128.796C10.0749 127.696 10.5911 126.76 11.2598 125.99C11.9368 125.22 12.7451 124.628 13.6846 124.213C14.624 123.798 15.6735 123.591 16.833 123.591C18.3734 123.591 19.6725 123.87 20.7305 124.429C21.7969 124.987 22.6221 125.758 23.2061 126.739C23.7985 127.721 24.154 128.838 24.2725 130.091H20.4639C20.4215 129.346 20.2734 128.716 20.0195 128.199C19.7656 127.675 19.3805 127.281 18.8643 127.019C18.3564 126.748 17.6794 126.612 16.833 126.612C16.1982 126.612 15.6439 126.731 15.1699 126.968C14.696 127.205 14.2982 127.564 13.9766 128.047C13.6549 128.529 13.4137 129.139 13.2529 129.875C13.1006 130.603 13.0244 131.458 13.0244 132.439V133.747C13.0244 134.703 13.0964 135.546 13.2402 136.273C13.3841 136.993 13.6042 137.602 13.9004 138.102C14.2051 138.592 14.5944 138.965 15.0684 139.219C15.5508 139.464 16.1305 139.587 16.8076 139.587C17.6032 139.587 18.2591 139.46 18.7754 139.206C19.2917 138.952 19.6852 138.576 19.9561 138.076C20.2354 137.577 20.4004 136.955 20.4512 136.21ZM34.2637 127.019L29.2363 142.342H25.1865L32.0547 123.857H34.6318L34.2637 127.019ZM38.4404 142.342L33.4004 127.019L32.9941 123.857H35.5967L42.5029 142.342H38.4404ZM38.2119 135.461V138.444H28.4492V135.461H38.2119ZM56.0996 139.371V142.342H46.7939V139.371H56.0996ZM48.0254 123.857V142.342H44.2168V123.857H48.0254ZM70.6865 139.371V142.342H60.8477V139.371H70.6865ZM62.0918 123.857V142.342H58.2832V123.857H62.0918ZM69.4043 131.386V134.28H60.8477V131.386H69.4043ZM70.6738 123.857V126.841H60.8477V123.857H70.6738ZM87.9521 123.857V142.342H84.1436L76.7168 129.951V142.342H72.9082V123.857H76.7168L84.1562 136.261V123.857H87.9521ZM96.9404 142.342H92.916L92.9414 139.371H96.9404C97.9391 139.371 98.7812 139.147 99.4668 138.698C100.152 138.241 100.669 137.577 101.016 136.705C101.371 135.833 101.549 134.78 101.549 133.544V132.643C101.549 131.695 101.447 130.861 101.244 130.142C101.049 129.422 100.757 128.817 100.368 128.326C99.9788 127.835 99.5007 127.467 98.9336 127.222C98.3665 126.968 97.7148 126.841 96.9785 126.841H92.8398V123.857H96.9785C98.2142 123.857 99.3441 124.069 100.368 124.492C101.401 124.907 102.294 125.504 103.047 126.282C103.8 127.061 104.38 127.992 104.786 129.075C105.201 130.15 105.408 131.348 105.408 132.668V133.544C105.408 134.856 105.201 136.053 104.786 137.137C104.38 138.22 103.8 139.151 103.047 139.93C102.302 140.7 101.409 141.297 100.368 141.72C99.3356 142.134 98.193 142.342 96.9404 142.342ZM95.0742 123.857V142.342H91.2656V123.857H95.0742ZM115.412 127.019L110.385 142.342H106.335L113.203 123.857H115.78L115.412 127.019ZM119.589 142.342L114.549 127.019L114.143 123.857H116.745L123.651 142.342H119.589ZM119.36 135.461V138.444H109.598V135.461H119.36ZM113.267 122.816L115.755 118.906H119.729L116.237 122.816H113.267ZM125.365 123.857H132.259C133.672 123.857 134.887 124.069 135.902 124.492C136.926 124.915 137.714 125.542 138.264 126.371C138.814 127.201 139.089 128.22 139.089 129.431C139.089 130.421 138.92 131.272 138.581 131.982C138.251 132.685 137.781 133.273 137.172 133.747C136.571 134.213 135.864 134.585 135.052 134.864L133.846 135.499H127.854L127.828 132.528H132.284C132.953 132.528 133.507 132.41 133.947 132.173C134.387 131.936 134.717 131.606 134.938 131.183C135.166 130.759 135.28 130.269 135.28 129.71C135.28 129.118 135.17 128.605 134.95 128.174C134.73 127.742 134.396 127.412 133.947 127.184C133.499 126.955 132.936 126.841 132.259 126.841H129.174V142.342H125.365V123.857ZM135.699 142.342L131.484 134.103L135.509 134.077L139.774 142.164V142.342H135.699ZM146.071 123.857V142.342H142.275V123.857H146.071ZM164.822 132.668V133.544C164.822 134.949 164.632 136.21 164.251 137.327C163.87 138.444 163.333 139.397 162.639 140.184C161.945 140.962 161.115 141.559 160.15 141.974C159.194 142.388 158.132 142.596 156.964 142.596C155.804 142.596 154.742 142.388 153.777 141.974C152.821 141.559 151.992 140.962 151.289 140.184C150.587 139.397 150.041 138.444 149.651 137.327C149.271 136.21 149.08 134.949 149.08 133.544V132.668C149.08 131.255 149.271 129.994 149.651 128.885C150.032 127.768 150.57 126.815 151.264 126.028C151.966 125.241 152.796 124.64 153.752 124.226C154.717 123.811 155.779 123.604 156.938 123.604C158.106 123.604 159.169 123.811 160.125 124.226C161.09 124.64 161.919 125.241 162.613 126.028C163.316 126.815 163.857 127.768 164.238 128.885C164.628 129.994 164.822 131.255 164.822 132.668ZM160.976 133.544V132.643C160.976 131.661 160.887 130.798 160.709 130.053C160.531 129.308 160.269 128.682 159.922 128.174C159.575 127.666 159.152 127.285 158.652 127.031C158.153 126.769 157.582 126.638 156.938 126.638C156.295 126.638 155.724 126.769 155.225 127.031C154.734 127.285 154.315 127.666 153.968 128.174C153.629 128.682 153.371 129.308 153.193 130.053C153.016 130.798 152.927 131.661 152.927 132.643V133.544C152.927 134.517 153.016 135.381 153.193 136.134C153.371 136.879 153.633 137.509 153.98 138.025C154.327 138.533 154.751 138.918 155.25 139.181C155.749 139.443 156.321 139.574 156.964 139.574C157.607 139.574 158.178 139.443 158.678 139.181C159.177 138.918 159.596 138.533 159.935 138.025C160.273 137.509 160.531 136.879 160.709 136.134C160.887 135.381 160.976 134.517 160.976 133.544Z" fill="url(#paint1_linear_435_1193)"/>
<defs>
<linearGradient id="paint0_linear_435_1193" x1="87" y1="14" x2="87.5" y2="83.5" gradientUnits="userSpaceOnUse">
<stop stop-color="#08D034"/>
<stop offset="1" stop-color="#07EF48" stop-opacity="0"/>
</linearGradient>
<linearGradient id="paint1_linear_435_1193" x1="87" y1="117.342" x2="87" y2="145.866" gradientUnits="userSpaceOnUse">
<stop stop-color="white"/>
<stop offset="1" stop-color="#D9D9D9" stop-opacity="0.8"/>
</linearGradient>
</defs>
</svg>
